<svg width="1440" height="635" viewBox="0 0 1440 635" fill="none" xmlns="http://www.w3.org/2000/svg">
<g opacity="0.2">
<path d="M253.172 193.809C254.774 199.787 254.631 207.481 252.52 218.239C246.649 246.863 215.64 282.91 182.836 320.987C164.832 341.939 146.202 363.574 131.706 384.187C104.067 416.021 91.1671 460.892 78.648 504.328C69.5164 536.062 60.8577 566.034 46.9883 591.168L46.957 591.219C36.0357 610.23 23.4786 621.12 8.59552 624.506C-20.4462 631.127 -54.0811 608.014 -93.0248 581.206L-96.7713 578.64C-125.752 558.795 -163.966 534.372 -220.627 499.366L-225.301 496.361C-274.637 464.683 -336.043 425.229 -382.9 365.362C-485.776 247.868 -465.93 115.597 -420.042 63.2199C-365.141 6.70729 -294.856 -8.51289 -151.291 4.96997C-1.57162 19.2554 133.78 103.491 185.01 139.048C202.897 154.426 217.432 163.175 228.044 169.535C241.461 177.637 250.248 182.895 253.172 193.809ZM42.0128 588.716C55.5806 564.137 64.1361 534.45 73.2171 503.031C85.8697 459.086 98.965 413.603 127.231 381.086C141.716 360.432 160.451 338.683 178.528 317.669C210.841 280.11 241.37 244.622 246.987 217.399C252.175 190.592 245.308 186.454 224.918 174.156C214.138 167.67 199.339 158.776 181.336 143.301C130.677 108.193 -3.66285 24.5465 -152.046 10.3762C-293.54 -2.93062 -362.598 11.8318 -415.943 66.7661C-460.442 117.61 -479.477 246.697 -378.548 361.959C-332.126 421.212 -271.152 460.394 -222.185 491.871L-217.522 494.836C-160.809 529.871 -122.541 554.323 -93.4976 574.236L-89.7511 576.802C-51.9049 602.872 -19.2094 625.334 7.3345 619.296C20.6011 616.258 31.9129 606.26 42.0128 588.716Z" fill="#A7CEFC"/>
<path d="M217.328 212.144C219.542 220.409 219.116 229.899 217.431 243.252L217.411 243.516C211.474 269.878 187.121 296.014 161.37 323.643C143.752 342.512 125.593 362.043 110.987 383.589C86.3513 415.048 70.1591 450.652 54.4956 485.039C43.9983 508.151 34.061 529.994 21.9578 549.966L21.6973 550.337C-15.0764 594.251 -41.1623 576.814 -88.5429 545.213C-93.6926 541.776 -99.1166 538.155 -104.888 534.412C-115.003 526.715 -126.172 518.612 -138.016 510.002C-190.681 471.775 -262.801 419.366 -332.087 336.738C-409.221 233.721 -399.7 135.61 -356.078 84.0123C-310.211 31.7267 -239.089 28.1948 -115.534 40.0295C10.3552 55.5394 106.362 119.697 157.933 154.174L163.684 158.009C198.685 184.54 213.027 196.094 217.328 212.144ZM211.856 242.596C216.398 206.157 211.714 201.434 160.305 162.355L154.712 158.607C103.532 124.412 8.24244 60.7502 -116.217 45.3731C-237.7 33.7144 -307.541 36.9892 -351.717 87.3594C-393.941 137.293 -402.868 232.749 -327.546 333.371C-258.779 415.406 -186.954 467.551 -134.542 505.673C-122.698 514.283 -111.529 522.386 -101.478 530.014C-95.8644 533.671 -90.4404 537.292 -85.2488 540.718C-37.8154 572.347 -16.1195 586.833 17.2428 547.144C29.1167 527.491 38.9291 505.853 49.3542 482.976C65.1104 448.263 81.4587 412.402 106.397 380.562C121.127 358.81 139.465 339.103 157.217 320.068C182.374 293.071 206.163 267.517 211.856 242.596Z" fill="#A7CEFC"/>
<path d="M187.49 227.708C190.317 238.261 188.995 249.108 185.548 263.106C178.166 286.931 155.984 310.421 132.548 335.279C118.596 350.027 104.205 365.323 91.6492 381.761C71.3706 405.472 55.5511 431.386 40.2095 456.397C27.6263 476.929 15.7718 496.318 2.55359 512.633L2.34469 512.861C-33.7435 548.42 -60.2841 528.782 -108.488 493.101L-109.048 492.692L-117.297 485.914C-164.131 447.287 -228.288 394.378 -286.084 313.832C-349.724 217.521 -331.795 140.552 -297.174 103.881C-260.256 64.7018 -199.069 55.4887 -85.9852 72.0645C-6.80804 84.9958 70.631 119.982 144.171 176.01C170.884 198.139 183.447 212.621 187.49 227.708ZM-1.80726 509.286C11.129 493.262 22.9005 474.066 35.3169 453.752C50.7413 428.546 66.7385 402.456 87.184 378.528C99.791 361.947 114.339 346.566 128.396 331.704C151.425 307.342 173.147 284.319 180.117 261.809C188.039 229.926 184.036 216.161 140.528 180.212C67.7381 124.799 -8.83685 90.184 -87.0251 77.4178C-197.952 61.1673 -257.661 69.8552 -293.106 107.479C-329.022 145.529 -339.359 223.129 -281.446 310.826C-224.095 390.717 -160.276 443.372 -113.632 481.793L-105.045 488.825C-56.5036 524.759 -34.2808 541.21 -1.80726 509.286Z" fill="#A7CEFC"/>
<path d="M159.62 239.217C162.781 251.014 161.509 263.225 156.51 277.81L156.489 277.901C148.131 300.096 127.052 321.828 104.783 344.826C94.4521 355.464 83.819 366.484 73.9456 377.989C59.1897 393.769 46.0994 410.394 33.4893 426.459C17.9898 446.18 3.3354 464.858 -12.0528 478.615C-45.4148 504.369 -71.208 486.681 -109.826 454.539C-147.214 420.777 -201.818 367.76 -244.793 296.359C-280.494 226.751 -282.56 168 -250.697 130.777C-216.381 90.618 -147.762 79.9296 -62.4158 101.443C36.5942 121.403 106.218 176.245 125.171 192.583C144.636 210.161 155.642 224.371 159.62 239.217ZM151.182 276.227C160.477 248.965 158.388 230.086 121.307 196.629C102.649 180.555 33.9338 126.417 -63.8344 106.726C-147.054 85.7608 -213.565 95.7553 -246.367 134.176C-276.717 169.66 -274.359 226.312 -239.774 293.767C-197.224 364.422 -143.033 417.076 -105.951 450.533C-66.2235 483.625 -44.3356 496.812 -15.5977 474.619C-0.763871 461.312 13.7237 442.851 29.0875 423.295C41.8021 407.115 54.9128 390.4 69.7839 374.545C79.6465 363 90.4055 351.946 100.767 341.257C122.555 318.646 143.206 297.33 151.182 276.227Z" fill="#A7CEFC"/>
<path d="M133.833 248.407C137.188 260.926 135.782 273.645 130.004 288.009L129.796 288.409C93.5849 347.181 -2.9299 431.057 -21.8873 447.276L-22.3479 447.571C-51.32 464.021 -74.5229 450.628 -107.193 420.203C-136.649 391.197 -177.912 343.98 -207.451 283.602C-232.823 227.526 -231.585 180.102 -203.977 149.998C-173.299 116.576 -115.173 108.699 -44.5 128.339C22.8397 144.27 77.7052 179.628 106.565 207.417C121.367 222.03 130.274 235.125 133.833 248.407ZM124.863 285.946C135.806 258.457 129.746 238.191 102.521 211.296C74.2002 184.007 20.274 149.301 -46.0661 133.575C-113.675 114.792 -171.1 122.266 -199.794 153.521C-225.877 181.927 -226.802 227.331 -202.315 281.279C-173.106 340.929 -132.256 387.611 -103.149 416.324C-71.9055 445.454 -51.2431 457.593 -25.3073 443.074C29.1494 396.486 97.123 330.837 124.863 285.946Z" fill="#A7CEFC"/>
<path d="M110.111 257.085C113.702 270.487 112.151 283.332 105.481 294.537C79.2643 339.235 13.8961 395.972 -28.4166 418.878C-38.3948 423.444 -49.2716 423.649 -60.7941 419.597C-96.3095 407.095 -138.517 353.164 -173.69 275.287C-190.659 230.592 -186.955 192.872 -163.262 168.977C-136.414 141.914 -88.3327 136.17 -31.4018 153.213C40.9285 175.849 92.9516 212.183 107.864 250.376C108.781 252.625 109.52 254.878 110.111 257.085ZM-173.994 256.187C-172.51 261.725 -170.679 267.384 -168.458 273.154C-133.945 349.574 -92.9109 402.486 -58.7545 414.449C-48.6223 418.013 -39.2587 417.87 -30.8842 414.034C10.5589 391.576 74.882 335.808 100.63 291.88C107.508 280.275 108.203 266.585 102.631 252.338C88.2953 215.624 37.5299 180.458 -33.1788 158.334C-87.172 142.181 -134.289 147.495 -159.225 172.626C-178.311 191.889 -183.38 221.158 -173.994 256.187Z" fill="#A7CEFC"/>
<path d="M86.6932 262.027C90.0262 274.466 88.7641 286.544 82.9114 297.273C62.1631 335.517 8.56683 380.111 -31.7589 392.637L-31.8428 392.659C-69.3548 402.925 -116.203 351.486 -143.156 270.373C-153.445 235.5 -148.166 206.175 -128.192 187.706C-105.303 166.521 -66.7761 162.39 -22.4549 176.361C31.5359 193.848 71.4194 223.156 84.264 254.808C85.2352 257.257 86.0589 259.659 86.6932 262.027ZM-33.3244 387.465C5.78405 375.266 57.8013 331.998 77.9359 294.822C84.1212 283.488 84.484 270.403 79.0215 256.9C66.7427 226.689 28.106 198.508 -24.3578 181.516C-66.6151 168.196 -103.105 171.867 -124.406 191.594C-142.749 208.594 -147.567 235.946 -137.837 268.733C-112.234 345.648 -67.2795 396.736 -33.3244 387.465Z" fill="#A7CEFC"/>
<path d="M64.3401 266.08C67.2537 276.954 66.3718 287.598 61.6268 297.256C45.1089 331.141 1.99207 363.638 -32.5688 368.297C-65.8833 372.235 -102.292 328.362 -115.474 268.589C-120.866 242.252 -114.819 220.161 -98.5062 206.329C-79.8094 190.481 -50.1573 187.482 -17.1962 198.175C21.4314 210.876 50.9007 233.385 61.6452 258.373C62.7853 260.949 63.652 263.512 64.3401 266.08ZM-107.722 276.532C-93.6804 328.936 -61.9356 366.317 -33.1583 362.907C-0.897216 358.563 41.0368 326.856 56.5791 295.039C61.687 284.553 61.647 272.651 56.4662 260.535C46.3078 236.895 18.0436 215.525 -19.1098 203.289C-50.1017 193.23 -77.7069 195.81 -94.8666 210.342C-109.569 222.797 -114.933 243.071 -109.994 267.379C-109.261 270.451 -108.528 273.523 -107.722 276.532Z" fill="#A7CEFC"/>
<path d="M42.88 269.596C45.2239 278.343 44.7084 286.996 41.3305 295.04C29.5901 322.915 -2.99193 345.536 -31.3067 345.468C-59.3599 345.2 -85.1642 311.689 -90.0543 269.262C-92.0911 250.412 -86.2478 234.612 -73.5897 224.769C-59.2579 213.618 -37.872 211.5 -14.9151 218.939C11.3173 227.521 31.3277 243.103 39.9528 261.693C41.1875 264.286 42.1705 266.947 42.88 269.596ZM-31.1396 340.047C-5.43129 340.126 25.3813 318.624 36.1374 293.12C39.9611 284.054 39.5116 273.982 34.848 263.964C26.9156 246.952 7.61312 231.997 -16.7975 224.002C-37.8799 217.179 -57.2813 218.98 -70.0965 228.908C-81.196 237.516 -86.2822 251.608 -84.4463 268.534C-79.975 307.718 -56.0397 339.795 -31.1396 340.047Z" fill="#A7CEFC"/>
<path d="M22.0562 272.809C23.6796 278.868 23.6124 285.165 21.4629 291.245C14.438 311.534 -8.09183 326.172 -28.7158 323.914C-49.2666 321.594 -66.2758 298.241 -66.6136 271.796C-66.7816 259.585 -61.9245 249.338 -53.0188 242.952C-43.2025 235.935 -29.3799 234.468 -15.1435 238.911C4.41091 245.068 18.1641 258.284 22.0562 272.809ZM16.1772 289.651C22.2414 272.157 7.40415 251.705 -16.9624 244.043C-29.4298 240.158 -41.4045 241.302 -49.7032 247.268C-57.102 252.562 -61.1279 261.209 -60.9917 271.623C-60.6695 295.491 -45.8496 316.55 -27.9493 318.548C-9.8284 320.531 9.95788 307.574 16.1772 289.651Z" fill="#A7CEFC"/>
<path d="M1.70803 276.283C2.58965 279.573 2.65224 282.997 1.75818 286.376C-1.30424 297.948 -13.4398 305.543 -25.3405 303.27C-37.0937 301.044 -45.7762 288.619 -44.6667 275.635C-44.1367 269.386 -41.1415 264.111 -36.1688 260.843C-30.9346 257.377 -23.9717 256.5 -17.0966 258.485C-7.37855 261.343 -0.431515 268.298 1.70803 276.283ZM-38.3549 283.577C-36.4089 290.84 -30.9187 296.723 -24.0897 298.032C-15.1354 299.719 -5.96301 293.993 -3.68257 285.21C-1.34942 276.457 -8.16551 266.801 -18.8413 263.727C-24.1582 262.184 -29.1786 262.755 -33.0728 265.347C-36.5902 267.665 -38.722 271.462 -39.1148 276.04C-39.278 278.621 -39 281.17 -38.3549 283.577Z" fill="#A7CEFC"/>
</g>
</svg>
