<svg width="84" height="44" viewBox="0 0 84 44" fill="none" xmlns="http://www.w3.org/2000/svg">
<g clip-path="url(#clip0_44_1010)">
<path d="M71.1469 0.135986L76.9105 5.41554L71.2065 5.50375L68.3184 2.86405L71.1469 0.135986Z" fill="white"/>
<path d="M71.2065 5.50374L76.9104 5.41553L71.2656 10.8601L68.3779 8.22041L71.2065 5.50374Z" fill="url(#paint0_linear_44_1010)"/>
<path d="M64.2099 0.286133L69.9735 5.56569L64.2695 5.6539L61.3818 3.0142L64.2099 0.286133Z" fill="white"/>
<path d="M64.27 5.65389L69.9739 5.56567L64.3296 11.0103L61.4414 8.37056L64.27 5.65389Z" fill="url(#paint1_linear_44_1010)"/>
<path d="M77.959 0.0125732L83.7225 5.29214L78.0186 5.38031L75.1309 2.74064L77.959 0.0125732Z" fill="white"/>
<path d="M78.0185 5.38033L83.7225 5.29211L78.0781 10.7367L75.1904 8.097L78.0185 5.38033Z" fill="url(#paint2_linear_44_1010)"/>
<path d="M22.5341 13.0322V35.2642H19.6359V18.6866L12.3109 35.2642H10.2726L2.91574 18.6545V35.2642H0.0175781V13.0322H3.13868L11.2917 31.4089L19.4448 13.0322H22.5341Z" fill="white"/>
<path d="M39.9334 17.6586L29.4236 43.553H26.4299L29.8694 35.0715L22.8311 17.6586H26.0477L31.5255 31.923L36.9397 17.6586H39.9334Z" fill="white"/>
<path d="M49.7869 15.0746C52.2074 15.0746 54.2989 15.5351 56.061 16.4561C57.8445 17.3556 59.2034 18.6514 60.1375 20.3434C61.0929 22.0354 61.5707 24.0273 61.5707 26.3191C61.5707 28.6108 61.0929 30.6027 60.1375 32.2947C59.2034 33.9653 57.8445 35.2504 56.061 36.15C54.2989 37.0281 52.2074 37.4672 49.7869 37.4672H42.876V15.0746H49.7869ZM49.7869 35.0577C52.6532 35.0577 54.8403 34.2973 56.3476 32.7766C57.8549 31.2345 58.6088 29.082 58.6088 26.3191C58.6088 23.5347 57.8444 21.3608 56.3158 19.7973C54.8084 18.2337 52.6319 17.452 49.7869 17.452H45.7741V35.0577H49.7869Z" fill="white"/>
<path d="M71.922 26.287L78.7374 37.4672H75.4571L70.1385 28.7286L65.0747 37.4672H61.858L68.6416 26.287L61.8262 15.0746H65.0747L70.4251 23.8453L75.5208 15.0746H78.7693L71.922 26.287Z" fill="white"/>
</g>
<defs>
<linearGradient id="paint0_linear_44_1010" x1="41.8699" y1="0.012499" x2="41.8699" y2="43.553" gradientUnits="userSpaceOnUse">
<stop stop-color="white"/>
<stop offset="1" stop-color="white" stop-opacity="0"/>
</linearGradient>
<linearGradient id="paint1_linear_44_1010" x1="41.8703" y1="0.0125194" x2="41.8703" y2="43.553" gradientUnits="userSpaceOnUse">
<stop stop-color="white"/>
<stop offset="1" stop-color="white" stop-opacity="0"/>
</linearGradient>
<linearGradient id="paint2_linear_44_1010" x1="41.8701" y1="0.0125009" x2="41.8701" y2="43.5529" gradientUnits="userSpaceOnUse">
<stop stop-color="white"/>
<stop offset="1" stop-color="white" stop-opacity="0"/>
</linearGradient>
<clipPath id="clip0_44_1010">
<rect width="83.76" height="43.5552" fill="white"/>
</clipPath>
</defs>
</svg>
